<svg width="24" height="24" viewBox="0 0 24 24" fill="none" xmlns="http://www.w3.org/2000/svg">
<g clip-path="url(#clip0_1760_7653)">
<path d="M7.73389 9.35178V5.36979C7.73389 4.1131 8.75263 3.09436 10.0093 3.09436H13.9913C15.248 3.09436 16.2667 4.1131 16.2667 5.36979V9.35178M7.73389 9.35178C7.73389 10.6085 8.75263 11.6272 10.0093 11.6272H13.9913C15.248 11.6272 16.2667 10.6085 16.2667 9.35178M7.73389 9.35178L9.94878 7.50604C10.6709 6.90425 11.6888 6.80847 12.5105 7.26499L16.2667 9.35178M7.51025 14.4246L16.4902 14.3367M5.57666 16.4935L18.4237 16.4935M8.35107 20.311C8.35107 19.6992 8.84707 19.2032 9.45891 19.2032H14.5418C15.1537 19.2032 15.6497 19.6992 15.6497 20.311C15.6497 20.9229 15.1537 21.4188 14.5418 21.4188H9.45891C8.84707 21.4188 8.35107 20.9229 8.35107 20.311ZM4.11936 0.689423H19.7649C20.9993 0.689423 22 1.81433 22 3.20197V20.7898C22 22.1775 20.9993 23.3024 19.7649 23.3024H4.11936C2.88496 23.3024 1.88428 22.1775 1.88428 20.7898V3.20197C1.88428 1.81433 2.88496 0.689423 4.11936 0.689423Z" stroke="#1E293B" stroke-width="1.4" stroke-linecap="round"/>
</g>
<defs>
<clipPath id="clip0_1760_7653">
<rect width="24" height="24" fill="white" transform="translate(0 0.000244141)"/>
</clipPath>
</defs>
</svg>
