<svg width="126" height="111" viewBox="0 0 126 111" fill="none" xmlns="http://www.w3.org/2000/svg">
<rect x="0.500008" y="0.5" width="124.157" height="109.336" rx="4.5" stroke="#E4EBF0"/>
<rect x="33.5787" y="12.1465" width="58" height="48" rx="1" fill="#C8D0D7"/>
<g clip-path="url(#clip0_530_2)">
<path d="M59.0822 31.7715C59.0822 32.4677 58.8057 33.1354 58.3134 33.6276C57.8211 34.1199 57.1534 34.3965 56.4572 34.3965C55.761 34.3965 55.0934 34.1199 54.6011 33.6276C54.1088 33.1354 53.8322 32.4677 53.8322 31.7715C53.8322 31.0753 54.1088 30.4076 54.6011 29.9153C55.0934 29.423 55.761 29.1465 56.4572 29.1465C57.1534 29.1465 57.8211 29.423 58.3134 29.9153C58.8057 30.4076 59.0822 31.0753 59.0822 31.7715Z" fill="#E4EBF0"/>
<path d="M52.0822 23.8965C51.154 23.8965 50.2637 24.2652 49.6074 24.9216C48.951 25.578 48.5822 26.4682 48.5822 27.3965V44.8965C48.5822 45.8247 48.951 46.715 49.6074 47.3714C50.2637 48.0277 51.154 48.3965 52.0822 48.3965H73.0822C74.0105 48.3965 74.9007 48.0277 75.5571 47.3714C76.2135 46.715 76.5822 45.8247 76.5822 44.8965V27.3965C76.5822 26.4682 76.2135 25.578 75.5571 24.9216C74.9007 24.2652 74.0105 23.8965 73.0822 23.8965H52.0822ZM73.0822 25.6465C73.5464 25.6465 73.9915 25.8309 74.3197 26.159C74.6479 26.4872 74.8322 26.9324 74.8322 27.3965V38.7715L68.2225 35.3642C68.0584 35.282 67.8726 35.2535 67.6914 35.2827C67.5101 35.3119 67.3427 35.3974 67.2127 35.527L60.7202 42.0195L56.0652 38.9185C55.8972 38.8066 55.6956 38.7563 55.4946 38.776C55.2937 38.7958 55.1058 38.8845 54.9627 39.027L50.3322 43.1465V27.3965C50.3322 26.9324 50.5166 26.4872 50.8448 26.159C51.173 25.8309 51.6181 25.6465 52.0822 25.6465H73.0822Z" fill="#E4EBF0"/>
</g>
<rect x="33.5787" y="73.0557" width="58" height="4" fill="#C8D0D7"/>
<rect x="33.5787" y="79.9351" width="51.1661" height="3" fill="#E4EBF0"/>
<rect x="33.5787" y="96.1899" width="26.4041" height="2" fill="#E4EBF0"/>
<rect x="33.5787" y="68.1768" width="15" height="2" fill="#E4EBF0"/>
<rect x="33.5787" y="84.9336" width="56.3583" height="3" fill="#E4EBF0"/>
<defs>
<clipPath id="clip0_530_2">
<rect width="28" height="28" fill="white" transform="translate(48.5787 22.1465)"/>
</clipPath>
</defs>
</svg>
